<svg xmlns="http://www.w3.org/2000/svg" xmlns:xlink="http://www.w3.org/1999/xlink" width="500" zoomAndPan="magnify" viewBox="0 0 375 374.999991" height="500" preserveAspectRatio="xMidYMid meet" version="1.0"><defs><clipPath id="de9c2b7e15"><path d="M 37.5 52.125 L 337.5 52.125 L 337.5 322.875 L 37.5 322.875 Z M 37.5 52.125 " clip-rule="nonzero"/></clipPath><clipPath id="3a108d9eff"><path d="M 37.5 215 L 337.5 215 L 337.5 322.875 L 37.5 322.875 Z M 37.5 215 " clip-rule="nonzero"/></clipPath><clipPath id="1f1396e99b"><path d="M 37.5 77 L 75 77 L 75 322.875 L 37.5 322.875 Z M 37.5 77 " clip-rule="nonzero"/></clipPath><clipPath id="52f52495be"><path d="M 300 77 L 337.5 77 L 337.5 322.875 L 300 322.875 Z M 300 77 " clip-rule="nonzero"/></clipPath><clipPath id="4c2c214daa"><path d="M 37.5 215 L 97 215 L 97 322.875 L 37.5 322.875 Z M 37.5 215 " clip-rule="nonzero"/></clipPath><clipPath id="e61cfd61cd"><path d="M 278 215 L 337.5 215 L 337.5 322.875 L 278 322.875 Z M 278 215 " clip-rule="nonzero"/></clipPath><clipPath id="beaa4ad55a"><path d="M 74 52.125 L 301 52.125 L 301 238 L 74 238 Z M 74 52.125 " clip-rule="nonzero"/></clipPath></defs><g clip-path="url(#de9c2b7e15)"><path fill="#d8d8d8" d="M 277 52.109375 L 98 52.109375 C 83.886719 52.109375 71.355469 61.132812 66.867188 74.511719 L 37.5 162.183594 L 37.5 322.792969 L 337.5 322.792969 L 337.5 162.183594 L 308.132812 74.511719 C 303.644531 61.128906 291.113281 52.109375 277 52.109375 Z M 277 52.109375 " fill-opacity="1" fill-rule="nonzero"/></g><g clip-path="url(#3a108d9eff)"><path fill="#eaeaea" d="M 300.628906 215.796875 L 187.5 237.984375 L 74.371094 215.796875 L 37.5 322.792969 L 337.5 322.792969 Z M 300.628906 215.796875 " fill-opacity="1" fill-rule="nonzero"/></g><g clip-path="url(#1f1396e99b)"><path fill="#d8d8d8" d="M 74.371094 82.03125 L 66.730469 237.984375 L 37.5 322.785156 L 37.5 162.175781 L 64.871094 80.472656 C 66.625 75.230469 74.371094 76.496094 74.371094 82.023438 Z M 74.371094 82.03125 " fill-opacity="1" fill-rule="nonzero"/></g><g clip-path="url(#52f52495be)"><path fill="#d8d8d8" d="M 300.628906 82.03125 L 308.269531 237.984375 L 337.5 322.785156 L 337.5 162.175781 L 310.128906 80.472656 C 308.375 75.230469 300.628906 76.496094 300.628906 82.023438 Z M 300.628906 82.03125 " fill-opacity="1" fill-rule="nonzero"/></g><g clip-path="url(#4c2c214daa)"><path fill="#f2f2f2" d="M 37.5 322.792969 L 96.554688 237.984375 L 74.371094 215.796875 Z M 37.5 322.792969 " fill-opacity="1" fill-rule="nonzero"/></g><g clip-path="url(#e61cfd61cd)"><path fill="#f2f2f2" d="M 300.628906 215.796875 L 278.445312 237.984375 L 337.5 322.792969 Z M 300.628906 215.796875 " fill-opacity="1" fill-rule="nonzero"/></g><g clip-path="url(#beaa4ad55a)"><path fill="#ffffff" d="M 96.558594 52.109375 L 278.445312 52.109375 C 279.175781 52.109375 279.898438 52.148438 280.621094 52.21875 C 281.34375 52.289062 282.0625 52.394531 282.777344 52.539062 C 283.488281 52.679688 284.191406 52.855469 284.886719 53.066406 C 285.582031 53.277344 286.265625 53.523438 286.9375 53.800781 C 287.609375 54.078125 288.265625 54.386719 288.90625 54.730469 C 289.546875 55.074219 290.167969 55.445312 290.773438 55.851562 C 291.378906 56.253906 291.960938 56.6875 292.523438 57.148438 C 293.085938 57.609375 293.621094 58.097656 294.136719 58.609375 C 294.648438 59.125 295.136719 59.660156 295.597656 60.222656 C 296.058594 60.785156 296.492188 61.367188 296.894531 61.972656 C 297.300781 62.574219 297.671875 63.199219 298.015625 63.839844 C 298.359375 64.480469 298.667969 65.136719 298.945312 65.808594 C 299.222656 66.480469 299.46875 67.164062 299.679688 67.859375 C 299.890625 68.554688 300.066406 69.257812 300.207031 69.96875 C 300.351562 70.683594 300.457031 71.402344 300.527344 72.125 C 300.597656 72.847656 300.636719 73.570312 300.636719 74.300781 L 300.636719 215.796875 C 300.636719 216.523438 300.597656 217.25 300.527344 217.972656 C 300.457031 218.695312 300.351562 219.414062 300.207031 220.125 C 300.066406 220.839844 299.890625 221.542969 299.679688 222.238281 C 299.46875 222.933594 299.222656 223.617188 298.945312 224.289062 C 298.667969 224.957031 298.359375 225.613281 298.015625 226.257812 C 297.671875 226.898438 297.300781 227.519531 296.894531 228.125 C 296.492188 228.726562 296.058594 229.3125 295.597656 229.871094 C 295.136719 230.433594 294.648438 230.972656 294.136719 231.484375 C 293.621094 232 293.085938 232.488281 292.523438 232.949219 C 291.960938 233.410156 291.378906 233.839844 290.773438 234.246094 C 290.167969 234.648438 289.546875 235.023438 288.90625 235.363281 C 288.265625 235.707031 287.609375 236.015625 286.9375 236.296875 C 286.265625 236.574219 285.582031 236.816406 284.886719 237.027344 C 284.191406 237.238281 283.488281 237.417969 282.777344 237.558594 C 282.0625 237.699219 281.34375 237.804688 280.621094 237.878906 C 279.898438 237.949219 279.175781 237.984375 278.445312 237.984375 L 96.558594 237.984375 C 95.832031 237.984375 95.109375 237.949219 94.386719 237.878906 C 93.664062 237.804688 92.945312 237.699219 92.230469 237.558594 C 91.519531 237.417969 90.816406 237.238281 90.121094 237.027344 C 89.425781 236.816406 88.742188 236.574219 88.070312 236.296875 C 87.398438 236.015625 86.742188 235.707031 86.101562 235.363281 C 85.460938 235.023438 84.835938 234.648438 84.234375 234.246094 C 83.628906 233.839844 83.046875 233.410156 82.484375 232.949219 C 81.921875 232.488281 81.386719 232 80.871094 231.484375 C 80.355469 230.972656 79.871094 230.433594 79.410156 229.871094 C 78.949219 229.3125 78.515625 228.726562 78.113281 228.125 C 77.707031 227.519531 77.335938 226.898438 76.992188 226.257812 C 76.648438 225.613281 76.339844 224.957031 76.0625 224.289062 C 75.78125 223.617188 75.539062 222.933594 75.328125 222.238281 C 75.117188 221.542969 74.941406 220.839844 74.796875 220.125 C 74.65625 219.414062 74.550781 218.695312 74.480469 217.972656 C 74.40625 217.25 74.371094 216.523438 74.371094 215.796875 L 74.371094 74.300781 C 74.371094 73.570312 74.40625 72.847656 74.480469 72.125 C 74.550781 71.402344 74.65625 70.683594 74.796875 69.96875 C 74.941406 69.257812 75.117188 68.554688 75.328125 67.859375 C 75.539062 67.164062 75.78125 66.480469 76.0625 65.808594 C 76.339844 65.136719 76.648438 64.480469 76.992188 63.839844 C 77.335938 63.199219 77.707031 62.574219 78.113281 61.972656 C 78.515625 61.367188 78.949219 60.785156 79.410156 60.222656 C 79.871094 59.660156 80.355469 59.125 80.871094 58.609375 C 81.386719 58.097656 81.921875 57.609375 82.484375 57.148438 C 83.046875 56.6875 83.628906 56.253906 84.234375 55.851562 C 84.835938 55.445312 85.460938 55.074219 86.101562 54.730469 C 86.742188 54.386719 87.398438 54.078125 88.070312 53.800781 C 88.742188 53.523438 89.425781 53.277344 90.121094 53.066406 C 90.816406 52.855469 91.519531 52.679688 92.230469 52.539062 C 92.945312 52.394531 93.664062 52.289062 94.386719 52.21875 C 95.109375 52.148438 95.832031 52.109375 96.558594 52.109375 Z M 96.558594 52.109375 " fill-opacity="1" fill-rule="nonzero"/></g><path fill="#353535" d="M 149.011719 91.980469 L 167.917969 91.980469 L 167.917969 195.28125 L 149.011719 195.28125 Z M 149.011719 91.980469 " fill-opacity="1" fill-rule="nonzero"/><path fill="#353535" d="M 190.878906 143.628906 L 225.988281 91.980469 L 203.027344 91.980469 L 167.917969 143.628906 L 203.027344 195.28125 L 225.988281 195.28125 Z M 190.878906 143.628906 " fill-opacity="1" fill-rule="nonzero"/></svg>