<svg xmlns="http://www.w3.org/2000/svg" xmlns:xlink="http://www.w3.org/1999/xlink" width="500" zoomAndPan="magnify" viewBox="0 0 375 374.999991" height="500" preserveAspectRatio="xMidYMid meet" version="1.0"><defs><clipPath id="ab7f7e0850"><path d="M 46 46 L 330 46 L 330 330 L 46 330 Z M 46 46 " clip-rule="nonzero"/></clipPath><clipPath id="ed3f3a037e"><path d="M 37.503906 243.234375 L 243.269531 37.464844 L 337.667969 131.863281 L 131.902344 337.632812 Z M 37.503906 243.234375 " clip-rule="nonzero"/></clipPath><clipPath id="615db27057"><path d="M 37.503906 243.234375 L 243.269531 37.464844 L 337.667969 131.863281 L 131.902344 337.632812 Z M 37.503906 243.234375 " clip-rule="nonzero"/></clipPath><clipPath id="465c243724"><path d="M 37.503906 243.234375 L 243.269531 37.464844 L 337.667969 131.863281 L 131.902344 337.632812 Z M 37.503906 243.234375 " clip-rule="nonzero"/></clipPath><clipPath id="72b86cf3d0"><path d="M 50 50 L 325 50 L 325 325 L 50 325 Z M 50 50 " clip-rule="nonzero"/></clipPath><clipPath id="ed5dc54e10"><path d="M 37.503906 243.234375 L 243.269531 37.464844 L 337.667969 131.863281 L 131.902344 337.632812 Z M 37.503906 243.234375 " clip-rule="nonzero"/></clipPath><clipPath id="7a2aaf8e36"><path d="M 37.503906 243.234375 L 243.269531 37.464844 L 337.667969 131.863281 L 131.902344 337.632812 Z M 37.503906 243.234375 " clip-rule="nonzero"/></clipPath><clipPath id="0b867bd64e"><path d="M 37.503906 243.234375 L 243.269531 37.464844 L 337.667969 131.863281 L 131.902344 337.632812 Z M 37.503906 243.234375 " clip-rule="nonzero"/></clipPath><clipPath id="9e7dc4fcfa"><path d="M 46 46 L 330 46 L 330 330 L 46 330 Z M 46 46 " clip-rule="nonzero"/></clipPath><clipPath id="12ca457ed5"><path d="M 37.503906 243.234375 L 243.269531 37.464844 L 337.667969 131.863281 L 131.902344 337.632812 Z M 37.503906 243.234375 " clip-rule="nonzero"/></clipPath><clipPath id="8cce49264c"><path d="M 37.503906 243.234375 L 243.269531 37.464844 L 337.667969 131.863281 L 131.902344 337.632812 Z M 37.503906 243.234375 " clip-rule="nonzero"/></clipPath><clipPath id="1d93151be8"><path d="M 37.503906 243.234375 L 243.269531 37.464844 L 337.667969 131.863281 L 131.902344 337.632812 Z M 37.503906 243.234375 " clip-rule="nonzero"/></clipPath><clipPath id="6c9978eeb2"><path d="M 50 50 L 312 50 L 312 308 L 50 308 Z M 50 50 " clip-rule="nonzero"/></clipPath><clipPath id="fcee3ef39f"><path d="M 37.503906 243.234375 L 243.269531 37.464844 L 337.667969 131.863281 L 131.902344 337.632812 Z M 37.503906 243.234375 " clip-rule="nonzero"/></clipPath><clipPath id="7192fe88a6"><path d="M 37.503906 243.234375 L 243.269531 37.464844 L 337.667969 131.863281 L 131.902344 337.632812 Z M 37.503906 243.234375 " clip-rule="nonzero"/></clipPath><clipPath id="8ad42a5c7a"><path d="M 37.503906 243.234375 L 243.269531 37.464844 L 337.667969 131.863281 L 131.902344 337.632812 Z M 37.503906 243.234375 " clip-rule="nonzero"/></clipPath><clipPath id="0ac1a5c8c0"><path d="M 71 71 L 317 71 L 317 312 L 71 312 Z M 71 71 " clip-rule="nonzero"/></clipPath><clipPath id="9313d95568"><path d="M 37.503906 243.234375 L 243.269531 37.464844 L 337.667969 131.863281 L 131.902344 337.632812 Z M 37.503906 243.234375 " clip-rule="nonzero"/></clipPath><clipPath id="022014efaf"><path d="M 37.503906 243.234375 L 243.269531 37.464844 L 337.667969 131.863281 L 131.902344 337.632812 Z M 37.503906 243.234375 " clip-rule="nonzero"/></clipPath><clipPath id="af06091151"><path d="M 37.503906 243.234375 L 243.269531 37.464844 L 337.667969 131.863281 L 131.902344 337.632812 Z M 37.503906 243.234375 " clip-rule="nonzero"/></clipPath><clipPath id="b7d537bd18"><path d="M 80 67 L 304 67 L 304 304 L 80 304 Z M 80 67 " clip-rule="nonzero"/></clipPath><clipPath id="87a00149c2"><path d="M 37.503906 243.234375 L 243.269531 37.464844 L 337.667969 131.863281 L 131.902344 337.632812 Z M 37.503906 243.234375 " clip-rule="nonzero"/></clipPath><clipPath id="76ba5442f6"><path d="M 37.503906 243.234375 L 243.269531 37.464844 L 337.667969 131.863281 L 131.902344 337.632812 Z M 37.503906 243.234375 " clip-rule="nonzero"/></clipPath><clipPath id="d87988c0e2"><path d="M 37.503906 243.234375 L 243.269531 37.464844 L 337.667969 131.863281 L 131.902344 337.632812 Z M 37.503906 243.234375 " clip-rule="nonzero"/></clipPath><clipPath id="2284d6e4ee"><path d="M 50 50 L 325 50 L 325 325 L 50 325 Z M 50 50 " clip-rule="nonzero"/></clipPath><clipPath id="1f76578efd"><path d="M 37.503906 243.234375 L 243.269531 37.464844 L 337.667969 131.863281 L 131.902344 337.632812 Z M 37.503906 243.234375 " clip-rule="nonzero"/></clipPath><clipPath id="27bff84580"><path d="M 37.503906 243.234375 L 243.269531 37.464844 L 337.667969 131.863281 L 131.902344 337.632812 Z M 37.503906 243.234375 " clip-rule="nonzero"/></clipPath><clipPath id="3d90235627"><path d="M 37.503906 243.234375 L 243.269531 37.464844 L 337.667969 131.863281 L 131.902344 337.632812 Z M 37.503906 243.234375 " clip-rule="nonzero"/></clipPath><clipPath id="97d4a301b8"><path d="M 63 243 L 81 243 L 81 261 L 63 261 Z M 63 243 " clip-rule="nonzero"/></clipPath><clipPath id="0306080337"><path d="M 37.503906 243.234375 L 243.269531 37.464844 L 337.667969 131.863281 L 131.902344 337.632812 Z M 37.503906 243.234375 " clip-rule="nonzero"/></clipPath><clipPath id="6d9e6ace4e"><path d="M 37.503906 243.234375 L 243.269531 37.464844 L 337.667969 131.863281 L 131.902344 337.632812 Z M 37.503906 243.234375 " clip-rule="nonzero"/></clipPath><clipPath id="4a0140da48"><path d="M 37.503906 243.234375 L 243.269531 37.464844 L 337.667969 131.863281 L 131.902344 337.632812 Z M 37.503906 243.234375 " clip-rule="nonzero"/></clipPath><clipPath id="01065009f5"><path d="M 63 247 L 72 247 L 72 257 L 63 257 Z M 63 247 " clip-rule="nonzero"/></clipPath><clipPath id="cf98731e0f"><path d="M 37.503906 243.234375 L 243.269531 37.464844 L 337.667969 131.863281 L 131.902344 337.632812 Z M 37.503906 243.234375 " clip-rule="nonzero"/></clipPath><clipPath id="55be7d5f36"><path d="M 37.503906 243.234375 L 243.269531 37.464844 L 337.667969 131.863281 L 131.902344 337.632812 Z M 37.503906 243.234375 " clip-rule="nonzero"/></clipPath><clipPath id="f609cde14a"><path d="M 37.503906 243.234375 L 243.269531 37.464844 L 337.667969 131.863281 L 131.902344 337.632812 Z M 37.503906 243.234375 " clip-rule="nonzero"/></clipPath><clipPath id="bd820102a2"><path d="M 97 260 L 132 260 L 132 295 L 97 295 Z M 97 260 " clip-rule="nonzero"/></clipPath><clipPath id="298a31036e"><path d="M 37.503906 243.234375 L 243.269531 37.464844 L 337.667969 131.863281 L 131.902344 337.632812 Z M 37.503906 243.234375 " clip-rule="nonzero"/></clipPath><clipPath id="f35cebae1c"><path d="M 37.503906 243.234375 L 243.269531 37.464844 L 337.667969 131.863281 L 131.902344 337.632812 Z M 37.503906 243.234375 " clip-rule="nonzero"/></clipPath><clipPath id="94fe3d9913"><path d="M 37.503906 243.234375 L 243.269531 37.464844 L 337.667969 131.863281 L 131.902344 337.632812 Z M 37.503906 243.234375 " clip-rule="nonzero"/></clipPath><clipPath id="fb5b9c3b11"><path d="M 97 264 L 124 264 L 124 291 L 97 291 Z M 97 264 " clip-rule="nonzero"/></clipPath><clipPath id="be142522ee"><path d="M 37.503906 243.234375 L 243.269531 37.464844 L 337.667969 131.863281 L 131.902344 337.632812 Z M 37.503906 243.234375 " clip-rule="nonzero"/></clipPath><clipPath id="790015625b"><path d="M 37.503906 243.234375 L 243.269531 37.464844 L 337.667969 131.863281 L 131.902344 337.632812 Z M 37.503906 243.234375 " clip-rule="nonzero"/></clipPath><clipPath id="03f21cd933"><path d="M 37.503906 243.234375 L 243.269531 37.464844 L 337.667969 131.863281 L 131.902344 337.632812 Z M 37.503906 243.234375 " clip-rule="nonzero"/></clipPath><clipPath id="99afa9b14d"><path d="M 213 123 L 235 123 L 235 145 L 213 145 Z M 213 123 " clip-rule="nonzero"/></clipPath><clipPath id="3249a6d3c9"><path d="M 37.503906 243.234375 L 243.269531 37.464844 L 337.667969 131.863281 L 131.902344 337.632812 Z M 37.503906 243.234375 " clip-rule="nonzero"/></clipPath><clipPath id="44a1004a0d"><path d="M 37.503906 243.234375 L 243.269531 37.464844 L 337.667969 131.863281 L 131.902344 337.632812 Z M 37.503906 243.234375 " clip-rule="nonzero"/></clipPath><clipPath id="1bcff00901"><path d="M 37.503906 243.234375 L 243.269531 37.464844 L 337.667969 131.863281 L 131.902344 337.632812 Z M 37.503906 243.234375 " clip-rule="nonzero"/></clipPath><clipPath id="ee0cc6dbb0"><path d="M 213 127 L 227 127 L 227 141 L 213 141 Z M 213 127 " clip-rule="nonzero"/></clipPath><clipPath id="147616a9d7"><path d="M 37.503906 243.234375 L 243.269531 37.464844 L 337.667969 131.863281 L 131.902344 337.632812 Z M 37.503906 243.234375 " clip-rule="nonzero"/></clipPath><clipPath id="a40907d624"><path d="M 37.503906 243.234375 L 243.269531 37.464844 L 337.667969 131.863281 L 131.902344 337.632812 Z M 37.503906 243.234375 " clip-rule="nonzero"/></clipPath><clipPath id="d5670caaec"><path d="M 37.503906 243.234375 L 243.269531 37.464844 L 337.667969 131.863281 L 131.902344 337.632812 Z M 37.503906 243.234375 " clip-rule="nonzero"/></clipPath></defs><g clip-path="url(#ab7f7e0850)"><g clip-path="url(#ed3f3a037e)"><g clip-path="url(#615db27057)"><g clip-path="url(#465c243724)"><path fill="#181425" d="M 251.8125 46.089844 L 329.046875 123.324219 L 324.761719 127.609375 L 329.054688 131.898438 L 324.769531 136.183594 L 329.058594 140.476562 L 140.511719 329.023438 L 136.222656 324.730469 L 131.9375 329.015625 L 127.644531 324.726562 L 123.359375 329.011719 L 46.125 251.773438 L 50.410156 247.488281 L 46.121094 243.199219 L 50.40625 238.914062 L 46.113281 234.621094 L 234.660156 46.078125 L 238.949219 50.367188 L 243.234375 46.082031 L 247.527344 50.375 Z M 251.8125 46.089844 " fill-opacity="1" fill-rule="nonzero"/></g></g></g></g><g clip-path="url(#72b86cf3d0)"><g clip-path="url(#ed5dc54e10)"><g clip-path="url(#7a2aaf8e36)"><g clip-path="url(#0b867bd64e)"><path fill="#5a6988" d="M 247.527344 50.375 L 324.761719 127.609375 L 320.476562 131.894531 L 324.769531 136.183594 L 136.222656 324.730469 L 131.929688 320.441406 L 127.644531 324.726562 L 50.410156 247.488281 L 54.695312 243.203125 L 50.40625 238.914062 L 238.949219 50.367188 L 243.242188 54.660156 Z M 247.527344 50.375 " fill-opacity="1" fill-rule="nonzero"/></g></g></g></g><g clip-path="url(#9e7dc4fcfa)"><g clip-path="url(#12ca457ed5)"><g clip-path="url(#8cce49264c)"><g clip-path="url(#1d93151be8)"><path fill="#181425" d="M 234.660156 46.078125 L 238.949219 50.367188 L 50.40625 238.914062 L 46.113281 234.621094 Z M 46.121094 243.199219 L 50.410156 247.488281 L 54.695312 243.203125 L 50.40625 238.914062 Z M 127.644531 324.726562 L 131.9375 329.015625 L 136.222656 324.730469 L 131.929688 320.441406 Z M 136.222656 324.730469 L 140.511719 329.023438 L 329.058594 140.476562 L 324.769531 136.183594 Z M 320.476562 131.894531 L 324.769531 136.183594 L 329.054688 131.898438 L 324.761719 127.609375 Z M 238.949219 50.367188 L 243.242188 54.660156 L 247.527344 50.375 L 243.234375 46.082031 Z M 46.125 251.773438 L 123.359375 329.011719 L 127.644531 324.726562 L 50.410156 247.488281 Z M 247.527344 50.375 L 324.761719 127.609375 L 329.046875 123.324219 L 251.8125 46.089844 Z M 247.527344 50.375 " fill-opacity="1" fill-rule="nonzero"/></g></g></g></g><g clip-path="url(#6c9978eeb2)"><g clip-path="url(#fcee3ef39f)"><g clip-path="url(#7192fe88a6)"><g clip-path="url(#8ad42a5c7a)"><path fill="#c0cbdc" d="M 88.988281 226.074219 L 97.570312 234.65625 L 89 243.226562 L 80.417969 234.644531 Z M 93.273438 221.789062 L 101.855469 230.371094 L 110.425781 221.800781 L 101.84375 213.21875 Z M 106.128906 208.933594 L 114.710938 217.515625 L 123.28125 208.945312 L 114.699219 200.363281 Z M 127.554688 187.507812 L 136.136719 196.089844 L 144.707031 187.519531 L 136.125 178.9375 Z M 140.410156 174.652344 L 148.992188 183.234375 L 157.5625 174.664062 L 148.980469 166.082031 Z M 153.265625 161.796875 L 161.847656 170.378906 L 170.417969 161.808594 L 161.835938 153.226562 Z M 174.691406 140.371094 L 183.273438 148.953125 L 191.84375 140.382812 L 183.261719 131.800781 Z M 187.546875 127.515625 L 196.128906 136.097656 L 204.699219 127.527344 L 196.117188 118.945312 Z M 200.402344 114.660156 L 208.984375 123.242188 L 217.554688 114.671875 L 208.972656 106.089844 Z M 217.542969 97.519531 L 226.125 106.101562 L 234.695312 97.53125 L 226.113281 88.949219 Z M 230.398438 84.664062 L 238.980469 93.246094 L 247.550781 84.675781 L 238.96875 76.09375 Z M 243.253906 71.808594 L 251.835938 80.390625 L 260.40625 71.820312 L 251.824219 63.242188 Z M 264.726562 118.992188 L 273.304688 127.574219 L 281.875 119.003906 L 273.296875 110.421875 Z M 269.03125 149.011719 L 277.613281 157.59375 L 286.183594 149.023438 L 277.601562 140.441406 Z M 294.742188 123.300781 L 303.324219 131.882812 L 311.894531 123.3125 L 303.3125 114.730469 Z M 281.886719 136.15625 L 290.46875 144.738281 L 299.039062 136.167969 L 290.457031 127.585938 Z M 80.441406 268.949219 L 89.023438 277.53125 L 101.878906 264.675781 L 93.296875 256.09375 Z M 217.589844 166.128906 L 226.167969 174.710938 L 251.878906 149 L 243.300781 140.417969 Z M 97.582031 251.808594 L 106.164062 260.390625 L 114.734375 251.820312 L 106.152344 243.238281 Z M 110.4375 238.953125 L 119.019531 247.535156 L 127.589844 238.964844 L 119.007812 230.382812 Z M 123.292969 226.097656 L 131.875 234.679688 L 140.445312 226.109375 L 131.863281 217.527344 Z M 136.148438 213.242188 L 144.730469 221.824219 L 153.300781 213.253906 L 144.71875 204.671875 Z M 149.003906 200.386719 L 157.585938 208.96875 L 166.15625 200.398438 L 157.574219 191.816406 Z M 161.859375 187.53125 L 170.441406 196.113281 L 179.011719 187.542969 L 170.429688 178.960938 Z M 174.714844 174.675781 L 183.296875 183.257812 L 191.867188 174.6875 L 183.285156 166.105469 Z M 187.570312 161.820312 L 196.152344 170.402344 L 204.722656 161.832031 L 196.140625 153.25 Z M 200.425781 148.964844 L 209.007812 157.546875 L 217.578125 148.976562 L 208.996094 140.394531 Z M 127.601562 256.117188 L 136.183594 264.699219 L 144.753906 256.128906 L 136.171875 247.546875 Z M 140.457031 243.261719 L 149.039062 251.84375 L 157.609375 243.273438 L 149.027344 234.691406 Z M 153.3125 230.40625 L 161.894531 238.988281 L 170.464844 230.417969 L 161.882812 221.835938 Z M 166.167969 217.550781 L 174.75 226.132812 L 183.320312 217.5625 L 174.738281 208.980469 Z M 179.023438 204.695312 L 187.605469 213.277344 L 196.175781 204.707031 L 187.59375 196.125 Z M 191.878906 191.839844 L 200.460938 200.421875 L 209.03125 191.851562 L 200.449219 183.269531 Z M 204.734375 178.984375 L 213.316406 187.566406 L 221.882812 178.996094 L 213.304688 170.414062 Z M 149.046875 268.996094 L 157.628906 277.578125 L 234.761719 200.445312 L 226.179688 191.863281 Z M 131.910156 286.136719 L 140.488281 294.71875 L 153.34375 281.863281 L 144.761719 273.28125 Z M 119.054688 298.992188 L 127.632812 307.574219 L 136.203125 299.003906 L 127.625 290.421875 Z M 230.464844 187.578125 L 239.046875 196.160156 L 251.902344 183.304688 L 243.320312 174.722656 Z M 247.605469 170.4375 L 256.1875 179.019531 L 264.757812 170.449219 L 256.175781 161.867188 Z M 110.398438 178.921875 L 50.40625 238.914062 L 54.695312 243.203125 L 114.6875 183.210938 Z M 131.824219 157.496094 L 118.96875 170.351562 L 123.257812 174.640625 L 136.113281 161.785156 Z M 140.398438 157.5 L 144.683594 153.214844 L 140.394531 148.925781 L 136.109375 153.210938 Z M 217.523438 71.792969 L 161.820312 127.5 L 166.109375 131.792969 L 221.816406 76.085938 Z M 238.949219 50.367188 L 226.09375 63.222656 L 230.386719 67.515625 L 243.242188 54.660156 Z M 238.949219 50.367188 " fill-opacity="1" fill-rule="nonzero"/></g></g></g></g><g clip-path="url(#0ac1a5c8c0)"><g clip-path="url(#9313d95568)"><g clip-path="url(#022014efaf)"><g clip-path="url(#af06091151)"><path fill="#262b44" d="M 106.167969 268.96875 L 93.3125 281.824219 L 89.023438 277.53125 L 101.878906 264.675781 Z M 131.898438 268.984375 L 106.1875 294.695312 L 110.476562 298.984375 L 136.1875 273.273438 Z M 114.734375 251.820312 L 106.164062 260.390625 L 110.453125 264.683594 L 119.023438 256.113281 Z M 127.589844 238.964844 L 119.019531 247.535156 L 123.308594 251.828125 L 131.878906 243.257812 Z M 144.753906 256.128906 L 136.183594 264.699219 L 140.472656 268.988281 L 149.042969 260.417969 Z M 157.609375 243.273438 L 149.039062 251.84375 L 153.328125 256.132812 L 161.898438 247.5625 Z M 170.464844 230.417969 L 161.894531 238.988281 L 166.183594 243.277344 L 174.753906 234.707031 Z M 183.320312 217.5625 L 174.75 226.132812 L 179.039062 230.421875 L 187.609375 221.851562 Z M 196.175781 204.707031 L 187.605469 213.277344 L 191.894531 217.566406 L 200.464844 208.996094 Z M 209.03125 191.851562 L 200.460938 200.421875 L 204.75 204.710938 L 213.320312 196.140625 Z M 221.882812 178.996094 L 213.316406 187.566406 L 217.605469 191.855469 L 226.175781 183.285156 Z M 251.878906 149 L 226.167969 174.710938 L 230.460938 179 L 256.171875 153.292969 Z M 140.445312 226.109375 L 131.875 234.679688 L 136.164062 238.972656 L 144.734375 230.402344 Z M 153.300781 213.253906 L 144.730469 221.824219 L 149.019531 226.117188 L 157.589844 217.546875 Z M 166.15625 200.398438 L 157.585938 208.96875 L 161.875 213.261719 L 170.445312 204.691406 Z M 179.011719 187.542969 L 170.441406 196.113281 L 174.730469 200.40625 L 183.300781 191.835938 Z M 191.867188 174.6875 L 183.296875 183.257812 L 187.585938 187.550781 L 196.15625 178.980469 Z M 204.722656 161.832031 L 196.152344 170.402344 L 200.441406 174.695312 L 209.011719 166.125 Z M 217.578125 148.976562 L 209.007812 157.546875 L 213.296875 161.839844 L 221.867188 153.269531 Z M 234.71875 131.835938 L 221.863281 144.691406 L 226.152344 148.984375 L 239.007812 136.128906 Z M 136.203125 299.003906 L 127.632812 307.574219 L 131.925781 311.863281 L 140.496094 303.292969 Z M 153.34375 281.863281 L 140.488281 294.71875 L 144.78125 299.007812 L 157.636719 286.152344 Z M 234.761719 200.445312 L 157.628906 277.578125 L 161.921875 281.867188 L 239.054688 204.734375 Z M 251.902344 183.304688 L 239.046875 196.160156 L 243.339844 200.449219 L 256.195312 187.59375 Z M 264.757812 170.449219 L 256.1875 179.019531 L 260.480469 183.308594 L 269.050781 174.738281 Z M 286.183594 149.023438 L 277.613281 157.59375 L 281.90625 161.882812 L 290.476562 153.3125 Z M 299.039062 136.167969 L 290.46875 144.738281 L 294.761719 149.027344 L 303.332031 140.457031 Z M 311.894531 123.3125 L 303.324219 131.882812 L 307.617188 136.171875 L 316.1875 127.601562 Z M 281.875 119.003906 L 273.304688 127.574219 L 277.597656 131.867188 L 286.167969 123.296875 Z M 80.429688 251.796875 L 71.859375 260.367188 L 76.148438 264.660156 L 84.71875 256.089844 Z M 97.570312 234.65625 L 89 243.226562 L 93.289062 247.519531 L 101.859375 238.949219 Z M 110.425781 221.800781 L 101.855469 230.371094 L 106.144531 234.664062 L 114.714844 226.09375 Z M 123.28125 208.945312 L 114.710938 217.515625 L 119 221.808594 L 127.570312 213.238281 Z M 144.707031 187.519531 L 136.136719 196.089844 L 140.425781 200.382812 L 148.996094 191.8125 Z M 157.5625 174.664062 L 148.992188 183.234375 L 153.28125 187.527344 L 161.851562 178.957031 Z M 170.417969 161.808594 L 161.847656 170.378906 L 166.136719 174.671875 L 174.707031 166.101562 Z M 191.84375 140.382812 L 183.273438 148.953125 L 187.5625 153.246094 L 196.132812 144.675781 Z M 204.699219 127.527344 L 196.128906 136.097656 L 200.417969 140.390625 L 208.988281 131.820312 Z M 217.554688 114.671875 L 208.984375 123.242188 L 213.273438 127.535156 L 221.84375 118.964844 Z M 234.695312 97.53125 L 226.125 106.101562 L 230.414062 110.394531 L 238.984375 101.824219 Z M 247.550781 84.675781 L 238.980469 93.246094 L 243.269531 97.539062 L 251.839844 88.96875 Z M 260.40625 71.820312 L 251.835938 80.390625 L 256.125 84.683594 L 264.695312 76.113281 Z M 260.40625 71.820312 " fill-opacity="1" fill-rule="nonzero"/></g></g></g></g><g clip-path="url(#b7d537bd18)"><g clip-path="url(#87a00149c2)"><g clip-path="url(#76ba5442f6)"><g clip-path="url(#d87988c0e2)"><path fill="#ffffff" d="M 88.992188 234.652344 L 84.707031 238.9375 L 80.417969 234.644531 L 84.703125 230.359375 Z M 97.558594 217.503906 L 93.273438 221.789062 L 97.5625 226.082031 L 101.847656 221.796875 Z M 110.414062 204.648438 L 106.128906 208.933594 L 110.417969 213.226562 L 114.703125 208.941406 Z M 131.839844 183.222656 L 127.554688 187.507812 L 131.84375 191.800781 L 136.128906 187.515625 Z M 144.695312 170.367188 L 140.410156 174.652344 L 144.699219 178.945312 L 148.984375 174.660156 Z M 157.550781 157.511719 L 153.265625 161.796875 L 157.554688 166.089844 L 161.839844 161.804688 Z M 178.976562 136.085938 L 174.691406 140.371094 L 178.980469 144.664062 L 183.265625 140.378906 Z M 191.832031 123.230469 L 187.546875 127.515625 L 191.835938 131.808594 L 196.121094 127.523438 Z M 204.6875 110.375 L 200.402344 114.660156 L 204.691406 118.953125 L 208.976562 114.667969 Z M 221.828125 93.234375 L 217.542969 97.519531 L 221.832031 101.8125 L 226.117188 97.527344 Z M 234.683594 80.378906 L 230.398438 84.664062 L 234.6875 88.957031 L 238.972656 84.671875 Z M 247.539062 67.527344 L 243.253906 71.808594 L 247.542969 76.101562 L 251.828125 71.816406 Z M 89.011719 260.378906 L 80.441406 268.949219 L 84.730469 273.242188 L 93.300781 264.671875 Z M 101.867188 247.523438 L 97.582031 251.808594 L 101.871094 256.101562 L 106.15625 251.816406 Z M 114.722656 234.667969 L 110.4375 238.953125 L 114.726562 243.246094 L 119.011719 238.960938 Z M 131.886719 251.832031 L 127.601562 256.117188 L 131.890625 260.40625 L 136.175781 256.121094 Z M 144.742188 238.976562 L 140.457031 243.261719 L 144.746094 247.550781 L 149.03125 243.265625 Z M 157.597656 226.121094 L 153.3125 230.40625 L 157.601562 234.695312 L 161.886719 230.414062 Z M 170.453125 213.265625 L 166.167969 217.550781 L 170.457031 221.84375 L 174.742188 217.558594 Z M 183.308594 200.410156 L 179.023438 204.695312 L 183.3125 208.988281 L 187.597656 204.703125 Z M 196.164062 187.554688 L 191.878906 191.839844 L 196.167969 196.132812 L 200.453125 191.847656 Z M 209.019531 174.699219 L 204.734375 178.984375 L 209.023438 183.277344 L 213.308594 178.992188 Z M 239.015625 144.703125 L 217.589844 166.128906 L 221.878906 170.421875 L 243.304688 148.996094 Z M 127.578125 221.8125 L 123.292969 226.097656 L 127.582031 230.390625 L 131.867188 226.105469 Z M 140.433594 208.957031 L 136.148438 213.242188 L 140.4375 217.535156 L 144.722656 213.25 Z M 153.289062 196.101562 L 149.003906 200.386719 L 153.292969 204.679688 L 157.578125 200.394531 Z M 166.144531 183.246094 L 161.859375 187.53125 L 166.148438 191.824219 L 170.433594 187.539062 Z M 179 170.390625 L 174.714844 174.675781 L 179.003906 178.96875 L 183.289062 174.683594 Z M 191.855469 157.535156 L 187.570312 161.820312 L 191.859375 166.113281 L 196.144531 161.828125 Z M 204.710938 144.679688 L 200.425781 148.964844 L 204.714844 153.257812 L 209 148.972656 Z M 123.339844 294.707031 L 119.054688 298.992188 L 123.34375 303.28125 L 127.628906 298.996094 Z M 140.480469 277.566406 L 131.910156 286.136719 L 136.199219 290.425781 L 144.769531 281.855469 Z M 187.613281 230.429688 L 149.046875 268.996094 L 153.339844 273.285156 L 191.90625 234.71875 Z M 200.46875 217.574219 L 191.898438 226.144531 L 196.191406 230.433594 L 204.761719 221.863281 Z M 209.039062 209.003906 L 204.753906 213.289062 L 209.046875 217.578125 L 213.332031 213.292969 Z M 239.035156 179.007812 L 230.464844 187.578125 L 234.757812 191.867188 L 243.328125 183.296875 Z M 251.890625 166.152344 L 247.605469 170.4375 L 251.898438 174.726562 L 256.183594 170.441406 Z M 269.011719 114.707031 L 264.726562 118.992188 L 269.015625 123.285156 L 273.300781 119 Z M 273.316406 144.726562 L 269.03125 149.011719 L 273.324219 153.300781 L 277.609375 149.015625 Z M 286.171875 131.871094 L 281.886719 136.15625 L 286.179688 140.445312 L 290.464844 136.160156 Z M 299.027344 119.015625 L 294.742188 123.300781 L 299.035156 127.589844 L 303.320312 123.304688 Z M 299.027344 119.015625 " fill-opacity="1" fill-rule="nonzero"/></g></g></g></g><g clip-path="url(#2284d6e4ee)"><g clip-path="url(#1f76578efd)"><g clip-path="url(#27bff84580)"><g clip-path="url(#3d90235627)"><path fill="#3a4466" d="M 80.429688 251.796875 L 71.847656 243.214844 L 80.417969 234.644531 L 89 243.226562 Z M 101.855469 230.371094 L 93.273438 221.789062 L 88.988281 226.074219 L 97.570312 234.65625 Z M 114.710938 217.515625 L 106.128906 208.933594 L 101.84375 213.21875 L 110.425781 221.800781 Z M 127.566406 204.660156 L 118.984375 196.078125 L 114.699219 200.363281 L 123.28125 208.945312 Z M 148.992188 183.234375 L 140.410156 174.652344 L 136.125 178.9375 L 144.707031 187.519531 Z M 84.699219 221.785156 L 76.128906 230.355469 L 80.417969 234.644531 L 88.988281 226.074219 Z M 97.554688 208.929688 L 88.984375 217.5 L 93.273438 221.789062 L 101.84375 213.21875 Z M 110.410156 196.074219 L 101.839844 204.644531 L 106.128906 208.933594 L 114.699219 200.363281 Z M 131.832031 174.648438 L 123.265625 183.21875 L 127.554688 187.507812 L 136.125 178.9375 Z M 161.847656 170.378906 L 153.265625 161.796875 L 148.980469 166.082031 L 157.5625 174.664062 Z M 144.6875 161.792969 L 136.117188 170.363281 L 140.410156 174.652344 L 148.980469 166.082031 Z M 157.542969 148.9375 L 148.972656 157.507812 L 153.265625 161.796875 L 161.835938 153.226562 Z M 174.703125 157.523438 L 166.121094 148.941406 L 161.835938 153.226562 L 170.417969 161.808594 Z M 127.554688 187.507812 L 123.269531 191.792969 L 131.851562 200.375 L 136.136719 196.089844 Z M 178.988281 153.238281 L 183.273438 148.953125 L 174.691406 140.371094 L 170.40625 144.65625 Z M 170.398438 136.082031 L 174.691406 140.371094 L 183.261719 131.800781 L 178.96875 127.511719 Z M 191.84375 140.382812 L 196.128906 136.097656 L 187.546875 127.515625 L 183.261719 131.800781 Z M 183.253906 123.226562 L 187.546875 127.515625 L 196.117188 118.945312 L 191.824219 114.65625 Z M 204.699219 127.527344 L 208.984375 123.242188 L 200.402344 114.660156 L 196.117188 118.945312 Z M 196.109375 110.371094 L 200.402344 114.660156 L 208.972656 106.089844 L 204.679688 101.800781 Z M 208.972656 106.089844 L 217.554688 114.671875 L 226.125 106.101562 L 217.542969 97.519531 Z M 213.25 93.230469 L 217.542969 97.519531 L 226.113281 88.949219 L 221.820312 84.660156 Z M 234.695312 97.53125 L 238.980469 93.246094 L 230.398438 84.664062 L 226.113281 88.949219 Z M 106.164062 260.390625 L 97.582031 251.808594 L 93.296875 256.09375 L 101.878906 264.675781 Z M 101.859375 238.949219 L 93.289062 247.519531 L 97.582031 251.808594 L 106.152344 243.238281 Z M 119.019531 247.535156 L 110.4375 238.953125 L 106.152344 243.238281 L 114.734375 251.820312 Z M 114.714844 226.09375 L 106.144531 234.664062 L 110.4375 238.953125 L 119.007812 230.382812 Z M 131.875 234.679688 L 123.292969 226.097656 L 119.007812 230.382812 L 127.589844 238.964844 Z M 127.570312 213.238281 L 119 221.808594 L 123.292969 226.097656 L 131.863281 217.527344 Z M 144.730469 221.824219 L 136.148438 213.242188 L 131.863281 217.527344 L 140.445312 226.109375 Z M 140.425781 200.382812 L 131.855469 208.953125 L 136.148438 213.242188 L 144.71875 204.671875 Z M 157.585938 208.96875 L 149.003906 200.386719 L 144.71875 204.671875 L 153.300781 213.253906 Z M 153.28125 187.527344 L 144.710938 196.097656 L 149.003906 200.386719 L 157.574219 191.816406 Z M 170.441406 196.113281 L 161.859375 187.53125 L 157.574219 191.816406 L 166.15625 200.398438 Z M 166.136719 174.671875 L 157.566406 183.242188 L 161.859375 187.53125 L 170.429688 178.960938 Z M 183.296875 183.257812 L 174.714844 174.675781 L 170.429688 178.960938 L 179.011719 187.542969 Z M 178.992188 161.816406 L 170.421875 170.386719 L 174.714844 174.675781 L 183.285156 166.105469 Z M 196.152344 170.402344 L 187.570312 161.820312 L 183.285156 166.105469 L 191.867188 174.6875 Z M 191.847656 148.960938 L 183.277344 157.53125 L 187.570312 161.820312 L 196.140625 153.25 Z M 209.007812 157.546875 L 200.425781 148.964844 L 196.140625 153.25 L 204.722656 161.832031 Z M 204.703125 136.105469 L 196.132812 144.675781 L 200.425781 148.964844 L 208.996094 140.394531 Z M 221.863281 144.691406 L 213.28125 136.109375 L 208.996094 140.394531 L 217.578125 148.976562 Z M 221.84375 118.964844 L 208.988281 131.820312 L 213.28125 136.109375 L 226.136719 123.253906 Z M 239.003906 127.550781 L 230.421875 118.96875 L 226.136719 123.253906 L 234.71875 131.835938 Z M 136.183594 264.699219 L 127.601562 256.117188 L 123.316406 260.402344 L 131.898438 268.984375 Z M 131.878906 243.257812 L 123.308594 251.828125 L 127.601562 256.117188 L 136.171875 247.546875 Z M 149.039062 251.84375 L 140.457031 243.261719 L 136.171875 247.546875 L 144.753906 256.128906 Z M 144.734375 230.402344 L 136.164062 238.972656 L 140.457031 243.261719 L 149.027344 234.691406 Z M 161.894531 238.988281 L 153.3125 230.40625 L 149.027344 234.691406 L 157.609375 243.273438 Z M 157.589844 217.546875 L 149.019531 226.117188 L 153.3125 230.40625 L 161.882812 221.835938 Z M 174.75 226.132812 L 166.167969 217.550781 L 161.882812 221.835938 L 170.464844 230.417969 Z M 170.445312 204.691406 L 161.875 213.261719 L 166.167969 217.550781 L 174.738281 208.980469 Z M 187.605469 213.277344 L 179.023438 204.695312 L 174.738281 208.980469 L 183.320312 217.5625 Z M 183.300781 191.835938 L 174.730469 200.40625 L 179.023438 204.695312 L 187.59375 196.125 Z M 200.460938 200.421875 L 191.878906 191.839844 L 187.59375 196.125 L 196.175781 204.707031 Z M 196.15625 178.980469 L 187.585938 187.550781 L 191.878906 191.839844 L 200.449219 183.269531 Z M 213.316406 187.566406 L 204.734375 178.984375 L 200.449219 183.269531 L 209.03125 191.851562 Z M 209.011719 166.125 L 200.441406 174.695312 L 204.734375 178.984375 L 213.304688 170.414062 Z M 226.167969 174.710938 L 217.589844 166.128906 L 213.304688 170.414062 L 221.882812 178.996094 Z M 239.007812 136.128906 L 213.296875 161.839844 L 217.589844 166.128906 L 243.300781 140.417969 Z M 256.164062 144.714844 L 247.585938 136.132812 L 243.300781 140.417969 L 251.878906 149 Z M 269.019531 131.859375 L 273.304688 127.574219 L 264.726562 118.992188 L 260.441406 123.277344 Z M 114.761719 294.699219 L 119.054688 298.992188 L 127.625 290.421875 L 123.332031 286.128906 Z M 136.203125 299.003906 L 140.488281 294.71875 L 131.910156 286.136719 L 127.625 290.421875 Z M 127.617188 281.84375 L 131.910156 286.136719 L 144.761719 273.28125 L 140.472656 268.988281 Z M 153.34375 281.863281 L 157.628906 277.578125 L 149.046875 268.996094 L 144.761719 273.28125 Z M 221.890625 187.570312 L 144.757812 264.703125 L 149.046875 268.996094 L 226.179688 191.863281 Z M 239.046875 196.160156 L 230.464844 187.578125 L 226.179688 191.863281 L 234.761719 200.445312 Z M 239.03125 170.429688 L 226.175781 183.285156 L 230.464844 187.578125 L 243.320312 174.722656 Z M 256.1875 179.019531 L 247.605469 170.4375 L 243.320312 174.722656 L 251.902344 183.304688 Z M 251.886719 157.578125 L 243.316406 166.144531 L 247.605469 170.4375 L 256.175781 161.867188 Z M 269.042969 166.164062 L 260.460938 157.582031 L 256.175781 161.867188 L 264.757812 170.449219 Z M 273.328125 161.878906 L 277.613281 157.59375 L 269.03125 149.011719 L 264.746094 153.296875 Z M 264.742188 144.722656 L 269.03125 149.011719 L 277.601562 140.441406 L 273.3125 136.152344 Z M 286.183594 149.023438 L 290.46875 144.738281 L 281.886719 136.15625 L 277.601562 140.441406 Z M 200.5 260.453125 L 209.070312 251.882812 L 204.777344 247.59375 L 196.207031 256.164062 Z M 191.929688 269.023438 L 196.214844 264.738281 L 191.921875 260.449219 L 187.636719 264.734375 Z M 243.242188 54.660156 L 247.53125 58.949219 L 243.246094 63.234375 L 238.957031 58.945312 L 234.671875 63.230469 L 238.960938 67.519531 L 226.105469 80.375 L 230.398438 84.664062 L 238.96875 76.09375 L 247.550781 84.675781 L 251.835938 80.390625 L 243.253906 71.808594 L 251.824219 63.242188 L 260.40625 71.820312 L 264.695312 76.113281 L 260.410156 80.398438 L 264.703125 84.6875 L 268.988281 80.402344 L 273.277344 84.695312 L 268.992188 88.980469 L 273.285156 93.269531 L 277.570312 88.984375 L 281.859375 93.277344 L 277.574219 97.5625 L 281.867188 101.851562 L 286.152344 97.566406 L 290.441406 101.859375 L 286.15625 106.144531 L 290.445312 110.433594 L 294.730469 106.148438 L 299.023438 110.441406 L 294.738281 114.726562 L 290.445312 110.433594 L 286.160156 114.71875 L 290.453125 119.011719 L 277.597656 131.867188 L 281.886719 136.15625 L 290.457031 127.585938 L 299.039062 136.167969 L 303.324219 131.882812 L 294.742188 123.300781 L 303.3125 114.730469 L 311.894531 123.3125 L 316.1875 127.601562 L 251.910156 191.878906 L 256.199219 196.171875 L 213.347656 239.023438 L 217.640625 243.3125 L 324.769531 136.183594 L 320.476562 131.894531 L 324.761719 127.609375 L 307.597656 110.445312 L 264.691406 67.535156 L 256.109375 58.957031 L 247.527344 50.375 Z M 286.15625 106.144531 L 281.867188 101.851562 L 277.582031 106.136719 L 273.289062 101.847656 L 260.433594 114.703125 L 264.726562 118.992188 L 273.296875 110.421875 L 281.875 119.003906 L 286.160156 114.71875 L 281.871094 110.429688 Z M 273.285156 93.269531 L 269 97.554688 L 273.289062 101.847656 L 277.574219 97.5625 Z M 264.703125 84.6875 L 260.417969 88.972656 L 264.707031 93.265625 L 268.992188 88.980469 Z M 251.839844 88.96875 L 256.132812 93.257812 L 260.417969 88.972656 L 256.125 84.683594 Z M 260.421875 97.550781 L 264.714844 101.839844 L 269 97.554688 L 264.707031 93.265625 Z M 97.605469 286.113281 L 123.316406 260.402344 L 119.023438 256.113281 L 93.3125 281.824219 L 80.441406 268.949219 L 93.296875 256.09375 L 89.003906 251.804688 L 76.148438 264.660156 L 63.277344 251.785156 L 71.847656 243.214844 L 67.558594 238.925781 L 58.988281 247.496094 L 54.695312 243.203125 L 50.410156 247.488281 L 127.644531 324.726562 L 131.929688 320.441406 L 136.222656 324.730469 L 166.21875 294.734375 L 161.925781 290.445312 L 136.214844 316.15625 L 131.925781 311.863281 L 127.640625 316.148438 L 123.347656 311.859375 L 127.632812 307.574219 L 119.054688 298.992188 L 114.769531 303.277344 Z M 97.605469 286.113281 " fill-opacity="1" fill-rule="nonzero"/></g></g></g></g><g clip-path="url(#97d4a301b8)"><g clip-path="url(#0306080337)"><g clip-path="url(#6d9e6ace4e)"><g clip-path="url(#4a0140da48)"><path fill="#feae34" d="M 63.277344 251.785156 L 71.847656 243.214844 L 80.429688 251.796875 L 71.859375 260.367188 Z M 63.277344 251.785156 " fill-opacity="1" fill-rule="nonzero"/></g></g></g></g><g clip-path="url(#01065009f5)"><g clip-path="url(#cf98731e0f)"><g clip-path="url(#55be7d5f36)"><g clip-path="url(#f609cde14a)"><path fill="#fee761" d="M 63.277344 251.785156 L 67.5625 247.5 L 71.851562 251.792969 L 67.566406 256.078125 Z M 63.277344 251.785156 " fill-opacity="1" fill-rule="nonzero"/></g></g></g></g><g clip-path="url(#bd820102a2)"><g clip-path="url(#298a31036e)"><g clip-path="url(#f35cebae1c)"><g clip-path="url(#94fe3d9913)"><path fill="#3e8948" d="M 97.605469 286.113281 L 123.316406 260.402344 L 131.898438 268.984375 L 106.1875 294.695312 Z M 97.605469 286.113281 " fill-opacity="1" fill-rule="nonzero"/></g></g></g></g><g clip-path="url(#fb5b9c3b11)"><g clip-path="url(#be142522ee)"><g clip-path="url(#790015625b)"><g clip-path="url(#03f21cd933)"><path fill="#63c74d" d="M 97.605469 286.113281 L 119.03125 264.6875 L 123.320312 268.976562 L 101.894531 290.402344 Z M 97.605469 286.113281 " fill-opacity="1" fill-rule="nonzero"/></g></g></g></g><g clip-path="url(#99afa9b14d)"><g clip-path="url(#3249a6d3c9)"><g clip-path="url(#44a1004a0d)"><g clip-path="url(#1bcff00901)"><path fill="#e43b44" d="M 213.28125 136.109375 L 226.136719 123.253906 L 234.71875 131.835938 L 221.863281 144.691406 Z M 213.28125 136.109375 " fill-opacity="1" fill-rule="nonzero"/></g></g></g></g><g clip-path="url(#ee0cc6dbb0)"><g clip-path="url(#147616a9d7)"><g clip-path="url(#a40907d624)"><g clip-path="url(#d5670caaec)"><path fill="#f6757a" d="M 213.28125 136.109375 L 221.851562 127.539062 L 226.140625 131.832031 L 217.570312 140.402344 Z M 213.28125 136.109375 " fill-opacity="1" fill-rule="nonzero"/></g></g></g></g></svg>